<svg width="743" height="253" viewBox="0 0 743 253" fill="none" xmlns="http://www.w3.org/2000/svg">
<g filter="url(#filter0_d)">
<path d="M86.9973 85H138.197V91.3H94.2973V114.2H117.197C125.464 114.2 131.731 115.9 135.997 119.3C140.331 122.7 142.497 127.633 142.497 134.1C142.497 140.833 140.164 146 135.497 149.6C130.897 153.2 124.264 155 115.597 155H86.9973V85ZM115.497 149.1C121.964 149.1 126.831 147.867 130.097 145.4C133.431 142.933 135.097 139.267 135.097 134.4C135.097 129.6 133.464 126.033 130.197 123.7C126.997 121.3 122.097 120.1 115.497 120.1H94.2973V149.1H115.497ZM212.407 85L180.607 143.9C178.341 148.1 175.674 151.233 172.607 153.3C169.607 155.3 166.307 156.3 162.707 156.3C160.041 156.3 157.174 155.667 154.107 154.4L156.207 148.4C158.607 149.333 160.807 149.8 162.807 149.8C167.407 149.8 171.174 147.3 174.107 142.3L176.107 138.9L147.707 85H155.607L180.007 132.4L205.007 85H212.407ZM247.111 122.9H231.111V155H223.911V85H231.111V116.4H247.111L270.811 85H278.811L252.811 119L280.311 155H271.811L247.111 122.9ZM322.287 155.6C315.354 155.6 309.054 154.067 303.387 151C297.787 147.867 293.387 143.6 290.187 138.2C287.054 132.8 285.487 126.733 285.487 120C285.487 113.267 287.054 107.2 290.187 101.8C293.387 96.4 297.787 92.1667 303.387 89.1C309.054 85.9667 315.354 84.4 322.287 84.4C329.22 84.4 335.454 85.9333 340.987 89C346.587 92.0667 350.987 96.3333 354.187 101.8C357.387 107.2 358.987 113.267 358.987 120C358.987 126.733 357.387 132.833 354.187 138.3C350.987 143.7 346.587 147.933 340.987 151C335.454 154.067 329.22 155.6 322.287 155.6ZM322.287 149C327.82 149 332.82 147.767 337.287 145.3C341.754 142.767 345.254 139.3 347.787 134.9C350.32 130.433 351.587 125.467 351.587 120C351.587 114.533 350.32 109.6 347.787 105.2C345.254 100.733 341.754 97.2667 337.287 94.8C332.82 92.2667 327.82 91 322.287 91C316.754 91 311.72 92.2667 307.187 94.8C302.72 97.2667 299.187 100.733 296.587 105.2C294.054 109.6 292.787 114.533 292.787 120C292.787 125.467 294.054 130.433 296.587 134.9C299.187 139.3 302.72 142.767 307.187 145.3C311.72 147.767 316.754 149 322.287 149ZM435.146 85V155H427.846V122.7H384.046V155H376.646V85H384.046V116.2H427.846V85H435.146ZM458.775 85H466.075V143L510.875 85H517.575V155H510.275V97.1L465.475 155H458.775V85ZM564.396 122.9H548.396V155H541.196V85H548.396V116.4H564.396L588.096 85H596.096L570.096 119L597.596 155H589.096L564.396 122.9ZM652.989 136.3H613.989L605.589 155H597.889L629.889 85H637.189L669.189 155H661.389L652.989 136.3ZM650.289 130.3L633.489 92.7L616.689 130.3H650.289Z" fill="#FFFBFF"/>
</g>
<g filter="url(#filter1_d)">
<path d="M333.747 76.7654L336.935 45.3622L354.909 53.3459L333.747 76.7654Z" fill="#FFFBFF"/>
</g>
<line x1="2.5" y1="1.09278e-07" x2="2.49999" y2="203" stroke="#FFFBFF" stroke-width="5"/>
<line x1="738" y1="2.5" x2="3" y2="2.5" stroke="#FFFBFF" stroke-width="5"/>
<line x1="200" y1="205.5" y2="205.5" stroke="#FFFBFF" stroke-width="5"/>
<line x1="743" y1="205.5" x2="543" y2="205.5" stroke="#FFFBFF" stroke-width="5"/>
<line x1="740.5" y1="1.09278e-07" x2="740.5" y2="203" stroke="#FFFBFF" stroke-width="5"/>
<defs>
<filter id="filter0_d" x="76.9971" y="77.4" width="604.191" height="93.9" filterUnits="userSpaceOnUse" color-interpolation-filters="sRGB">
<feFlood flood-opacity="0" result="BackgroundImageFix"/>
<feColorMatrix in="SourceAlpha" type="matrix" values="0 0 0 0 0 0 0 0 0 0 0 0 0 0 0 0 0 0 127 0"/>
<feOffset dx="1" dy="4"/>
<feGaussianBlur stdDeviation="5.5"/>
<feColorMatrix type="matrix" values="0 0 0 0 1 0 0 0 0 1 0 0 0 0 1 0 0 0 0.25 0"/>
<feBlend mode="normal" in2="BackgroundImageFix" result="effect1_dropShadow"/>
<feBlend mode="normal" in="SourceGraphic" in2="effect1_dropShadow" result="shape"/>
</filter>
<filter id="filter1_d" x="324.759" y="45.3623" width="38.1497" height="43.395" filterUnits="userSpaceOnUse" color-interpolation-filters="sRGB">
<feFlood flood-opacity="0" result="BackgroundImageFix"/>
<feColorMatrix in="SourceAlpha" type="matrix" values="0 0 0 0 0 0 0 0 0 0 0 0 0 0 0 0 0 0 127 0"/>
<feOffset dx="4" dy="4"/>
<feGaussianBlur stdDeviation="2"/>
<feColorMatrix type="matrix" values="0 0 0 0 1 0 0 0 0 1 0 0 0 0 1 0 0 0 0.25 0"/>
<feBlend mode="normal" in2="BackgroundImageFix" result="effect1_dropShadow"/>
<feBlend mode="normal" in="SourceGraphic" in2="effect1_dropShadow" result="shape"/>
</filter>
</defs>
</svg>
