<svg width="411" height="127" viewBox="0 0 411 127" fill="none" xmlns="http://www.w3.org/2000/svg">
<g filter="url(#filter0_d)">
<path d="M78.9826 41.3145H101.511V44.0865H82.1946V54.1625H92.2706C95.9079 54.1625 98.6653 54.9105 100.543 56.4065C102.449 57.9025 103.403 60.0732 103.403 62.9185C103.403 65.8812 102.376 68.1545 100.323 69.7385C98.2986 71.3225 95.3799 72.1145 91.5666 72.1145H78.9826V41.3145ZM91.5226 69.5185C94.3679 69.5185 96.5093 68.9758 97.9466 67.8905C99.4133 66.8052 100.147 65.1918 100.147 63.0505C100.147 60.9385 99.4279 59.3692 97.9906 58.3425C96.5826 57.2865 94.4266 56.7585 91.5226 56.7585H82.1946V69.5185H91.5226ZM134.163 41.3145L120.171 67.2305C119.174 69.0785 118 70.4572 116.651 71.3665C115.331 72.2465 113.879 72.6865 112.295 72.6865C111.122 72.6865 109.86 72.4078 108.511 71.8505L109.435 69.2105C110.491 69.6212 111.459 69.8265 112.339 69.8265C114.363 69.8265 116.02 68.7265 117.311 66.5265L118.191 65.0305L105.695 41.3145H109.171L119.907 62.1705L130.907 41.3145H134.163ZM149.433 57.9905H142.393V72.1145H139.225V41.3145H142.393V55.1305H149.433L159.861 41.3145H163.381L151.941 56.2745L164.041 72.1145H160.301L149.433 57.9905ZM182.51 72.3785C179.459 72.3785 176.687 71.7038 174.194 70.3545C171.73 68.9758 169.794 67.0985 168.386 64.7225C167.007 62.3465 166.318 59.6772 166.318 56.7145C166.318 53.7518 167.007 51.0825 168.386 48.7065C169.794 46.3305 171.73 44.4678 174.194 43.1185C176.687 41.7398 179.459 41.0505 182.51 41.0505C185.561 41.0505 188.303 41.7252 190.738 43.0745C193.202 44.4238 195.138 46.3012 196.546 48.7065C197.954 51.0825 198.658 53.7518 198.658 56.7145C198.658 59.6772 197.954 62.3612 196.546 64.7665C195.138 67.1425 193.202 69.0052 190.738 70.3545C188.303 71.7038 185.561 72.3785 182.51 72.3785ZM182.51 69.4745C184.945 69.4745 187.145 68.9318 189.11 67.8465C191.075 66.7318 192.615 65.2065 193.73 63.2705C194.845 61.3052 195.402 59.1198 195.402 56.7145C195.402 54.3092 194.845 52.1385 193.73 50.2025C192.615 48.2372 191.075 46.7118 189.11 45.6265C187.145 44.5118 184.945 43.9545 182.51 43.9545C180.075 43.9545 177.861 44.5118 175.866 45.6265C173.901 46.7118 172.346 48.2372 171.202 50.2025C170.087 52.1385 169.53 54.3092 169.53 56.7145C169.53 59.1198 170.087 61.3052 171.202 63.2705C172.346 65.2065 173.901 66.7318 175.866 67.8465C177.861 68.9318 180.075 69.4745 182.51 69.4745ZM232.168 41.3145V72.1145H228.956V57.9025H209.684V72.1145H206.428V41.3145H209.684V55.0425H228.956V41.3145H232.168ZM242.565 41.3145H245.777V66.8345L265.489 41.3145H268.437V72.1145H265.225V46.6385L245.513 72.1145H242.565V41.3145ZM289.038 57.9905H281.998V72.1145H278.83V41.3145H281.998V55.1305H289.038L299.466 41.3145H302.986L291.546 56.2745L303.646 72.1145H299.906L289.038 57.9905ZM328.019 63.8865H310.859L307.163 72.1145H303.775L317.855 41.3145H321.067L335.147 72.1145H331.715L328.019 63.8865ZM326.831 61.2465L319.439 44.7025L312.047 61.2465H326.831Z" fill="#011627"/>
</g>
<g filter="url(#filter1_d)">
<path d="M185.268 33.7804L187.019 18.0168L196.889 22.0244L185.268 33.7804Z" fill="#011627"/>
</g>
<line x1="2.5" y1="1.00774e-07" x2="2.5" y2="101.901" stroke="#011627" stroke-width="5"/>
<line x1="405.255" y1="2.5" x2="1.64789" y2="2.5" stroke="#011627" stroke-width="5"/>
<line x1="109.825" y1="104.401" x2="0.000160217" y2="104.401" stroke="#011627" stroke-width="5"/>
<line x1="410" y1="104.401" x2="300.175" y2="104.401" stroke="#011627" stroke-width="5"/>
<line x1="407.755" y1="8.4938e-08" x2="407.755" y2="101.901" stroke="#011627" stroke-width="5"/>
<defs>
<filter id="filter0_d" x="68.9824" y="34.0505" width="278.164" height="53.636" filterUnits="userSpaceOnUse" color-interpolation-filters="sRGB">
<feFlood flood-opacity="0" result="BackgroundImageFix"/>
<feColorMatrix in="SourceAlpha" type="matrix" values="0 0 0 0 0 0 0 0 0 0 0 0 0 0 0 0 0 0 127 0"/>
<feOffset dx="1" dy="4"/>
<feGaussianBlur stdDeviation="5.5"/>
<feColorMatrix type="matrix" values="0 0 0 0 1 0 0 0 0 1 0 0 0 0 1 0 0 0 0.25 0"/>
<feBlend mode="normal" in2="BackgroundImageFix" result="effect1_dropShadow"/>
<feBlend mode="normal" in="SourceGraphic" in2="effect1_dropShadow" result="shape"/>
</filter>
<filter id="filter1_d" x="185.269" y="18.0168" width="19.6209" height="23.7636" filterUnits="userSpaceOnUse" color-interpolation-filters="sRGB">
<feFlood flood-opacity="0" result="BackgroundImageFix"/>
<feColorMatrix in="SourceAlpha" type="matrix" values="0 0 0 0 0 0 0 0 0 0 0 0 0 0 0 0 0 0 127 0"/>
<feOffset dx="4" dy="4"/>
<feGaussianBlur stdDeviation="2"/>
<feColorMatrix type="matrix" values="0 0 0 0 1 0 0 0 0 1 0 0 0 0 1 0 0 0 0.25 0"/>
<feBlend mode="normal" in2="BackgroundImageFix" result="effect1_dropShadow"/>
<feBlend mode="normal" in="SourceGraphic" in2="effect1_dropShadow" result="shape"/>
</filter>
</defs>
</svg>
