<svg width="186" height="62" viewBox="0 0 186 62" fill="none" xmlns="http://www.w3.org/2000/svg">
<g filter="url(#filter0_d)">
<path d="M20.728 19.9297H33.528V21.5047H22.553V27.2297H28.278C30.3447 27.2297 31.9113 27.6547 32.978 28.5047C34.0613 29.3547 34.603 30.588 34.603 32.2047C34.603 33.888 34.0197 35.1797 32.853 36.0797C31.703 36.9797 30.0447 37.4297 27.878 37.4297H20.728V19.9297ZM27.853 35.9547C29.4697 35.9547 30.6863 35.6464 31.503 35.0297C32.3363 34.413 32.753 33.4964 32.753 32.2797C32.753 31.0797 32.3447 30.188 31.528 29.6047C30.728 29.0047 29.503 28.7047 27.853 28.7047H22.553V35.9547H27.853ZM52.0806 19.9297L44.1306 34.6547C43.5639 35.7047 42.8972 36.488 42.1306 37.0047C41.3806 37.5047 40.5556 37.7547 39.6556 37.7547C38.9889 37.7547 38.2722 37.5964 37.5056 37.2797L38.0306 35.7797C38.6306 36.013 39.1806 36.1297 39.6806 36.1297C40.8306 36.1297 41.7722 35.5047 42.5056 34.2547L43.0056 33.4047L35.9056 19.9297H37.8806L43.9806 31.7797L50.2306 19.9297H52.0806ZM60.7565 29.4047H56.7565V37.4297H54.9565V19.9297H56.7565V27.7797H60.7565L66.6815 19.9297H68.6815L62.1815 28.4297L69.0565 37.4297H66.9315L60.7565 29.4047ZM79.5505 37.5797C77.8171 37.5797 76.2421 37.1964 74.8255 36.4297C73.4255 35.6464 72.3255 34.5797 71.5255 33.2297C70.7421 31.8797 70.3505 30.363 70.3505 28.6797C70.3505 26.9964 70.7421 25.4797 71.5255 24.1297C72.3255 22.7797 73.4255 21.7214 74.8255 20.9547C76.2421 20.1714 77.8171 19.7797 79.5505 19.7797C81.2838 19.7797 82.8421 20.163 84.2255 20.9297C85.6255 21.6964 86.7255 22.763 87.5255 24.1297C88.3255 25.4797 88.7255 26.9964 88.7255 28.6797C88.7255 30.363 88.3255 31.888 87.5255 33.2547C86.7255 34.6047 85.6255 35.663 84.2255 36.4297C82.8421 37.1964 81.2838 37.5797 79.5505 37.5797ZM79.5505 35.9297C80.9338 35.9297 82.1838 35.6214 83.3005 35.0047C84.4171 34.3714 85.2921 33.5047 85.9255 32.4047C86.5588 31.288 86.8755 30.0464 86.8755 28.6797C86.8755 27.313 86.5588 26.0797 85.9255 24.9797C85.2921 23.863 84.4171 22.9964 83.3005 22.3797C82.1838 21.7464 80.9338 21.4297 79.5505 21.4297C78.1671 21.4297 76.9088 21.7464 75.7755 22.3797C74.6588 22.9964 73.7755 23.863 73.1255 24.9797C72.4921 26.0797 72.1755 27.313 72.1755 28.6797C72.1755 30.0464 72.4921 31.288 73.1255 32.4047C73.7755 33.5047 74.6588 34.3714 75.7755 35.0047C76.9088 35.6214 78.1671 35.9297 79.5505 35.9297ZM107.765 19.9297V37.4297H105.94V29.3547H94.9901V37.4297H93.1401V19.9297H94.9901V27.7297H105.94V19.9297H107.765ZM113.672 19.9297H115.497V34.4297L126.697 19.9297H128.372V37.4297H126.547V22.9547L115.347 37.4297H113.672V19.9297ZM140.078 29.4047H136.078V37.4297H134.278V19.9297H136.078V27.7797H140.078L146.003 19.9297H148.003L141.503 28.4297L148.378 37.4297H146.253L140.078 29.4047ZM162.226 32.7547H152.476L150.376 37.4297H148.451L156.451 19.9297H158.276L166.276 37.4297H164.326L162.226 32.7547ZM161.551 31.2547L157.351 21.8547L153.151 31.2547H161.551Z" fill="#FFFBFF"/>
</g>
<g filter="url(#filter1_d)">
<path d="M81.6058 17.0093L82.3962 10.4967L85.9087 12.0566L81.6058 17.0093Z" fill="#FFFBFF"/>
</g>
<line x1="1" y1="4.39192e-08" x2="0.999998" y2="50.5628" stroke="#FFFBFF" stroke-width="2"/>
<line x1="183.847" y1="1" x2="0.747665" y2="1" stroke="#FFFBFF" stroke-width="2"/>
<line x1="49.8232" y1="51.563" x2="0.000244141" y2="51.563" stroke="#FFFBFF" stroke-width="2"/>
<line x1="186" y1="51.563" x2="136.177" y2="51.563" stroke="#FFFBFF" stroke-width="2"/>
<line x1="184.847" y1="3.75495e-08" x2="184.847" y2="50.5628" stroke="#FFFBFF" stroke-width="2"/>
<defs>
<filter id="filter0_d" x="10.728" y="12.7798" width="167.548" height="39.975" filterUnits="userSpaceOnUse" color-interpolation-filters="sRGB">
<feFlood flood-opacity="0" result="BackgroundImageFix"/>
<feColorMatrix in="SourceAlpha" type="matrix" values="0 0 0 0 0 0 0 0 0 0 0 0 0 0 0 0 0 0 127 0"/>
<feOffset dx="1" dy="4"/>
<feGaussianBlur stdDeviation="5.5"/>
<feColorMatrix type="matrix" values="0 0 0 0 1 0 0 0 0 1 0 0 0 0 1 0 0 0 0.25 0"/>
<feBlend mode="normal" in2="BackgroundImageFix" result="effect1_dropShadow"/>
<feBlend mode="normal" in="SourceGraphic" in2="effect1_dropShadow" result="shape"/>
</filter>
<filter id="filter1_d" x="81.606" y="10.4966" width="12.3029" height="14.5126" filterUnits="userSpaceOnUse" color-interpolation-filters="sRGB">
<feFlood flood-opacity="0" result="BackgroundImageFix"/>
<feColorMatrix in="SourceAlpha" type="matrix" values="0 0 0 0 0 0 0 0 0 0 0 0 0 0 0 0 0 0 127 0"/>
<feOffset dx="4" dy="4"/>
<feGaussianBlur stdDeviation="2"/>
<feColorMatrix type="matrix" values="0 0 0 0 1 0 0 0 0 1 0 0 0 0 1 0 0 0 0.25 0"/>
<feBlend mode="normal" in2="BackgroundImageFix" result="effect1_dropShadow"/>
<feBlend mode="normal" in="SourceGraphic" in2="effect1_dropShadow" result="shape"/>
</filter>
</defs>
</svg>
