<svg width="308" height="78" viewBox="0 0 308 78" fill="none" xmlns="http://www.w3.org/2000/svg">
<line x1="2.5" y1="9.01547e-08" x2="2.5" y2="72.1373" stroke="#FFFBFF" stroke-width="5"/>
<line x1="302.394" y1="2.5" x2="1.22977" y2="2.5" stroke="#FFFBFF" stroke-width="5"/>
<line x1="81.9497" y1="74.6372" x2="0.000236511" y2="74.6372" stroke="#FFFBFF" stroke-width="5"/>
<line x1="307" y1="74.6372" x2="225.051" y2="74.6372" stroke="#FFFBFF" stroke-width="5"/>
<line x1="304.894" y1="8.04914e-08" x2="304.894" y2="72.1373" stroke="#FFFBFF" stroke-width="5"/>
<g filter="url(#filter0_d)">
<path d="M61.4792 28.6383H77.8632V30.6543H63.8152V37.9823H71.1432C73.7886 37.9823 75.7939 38.5263 77.1592 39.6143C78.5459 40.7023 79.2392 42.281 79.2392 44.3503C79.2392 46.505 78.4926 48.1583 76.9992 49.3103C75.5272 50.4623 73.4046 51.0383 70.6312 51.0383H61.4792V28.6383ZM70.5992 49.1503C72.6686 49.1503 74.2259 48.7557 75.2712 47.9663C76.3379 47.177 76.8712 46.0037 76.8712 44.4463C76.8712 42.9103 76.3486 41.769 75.3032 41.0223C74.2792 40.2543 72.7112 39.8703 70.5992 39.8703H63.8152V49.1503H70.5992ZM101.61 28.6383L91.4345 47.4863C90.7092 48.8303 89.8558 49.833 88.8745 50.4943C87.9145 51.1343 86.8585 51.4543 85.7065 51.4543C84.8532 51.4543 83.9358 51.2517 82.9545 50.8463L83.6265 48.9263C84.3945 49.225 85.0985 49.3743 85.7385 49.3743C87.2105 49.3743 88.4158 48.5743 89.3545 46.9743L89.9945 45.8863L80.9065 28.6383H83.4345L91.2425 43.8063L99.2425 28.6383H101.61ZM112.716 40.7663H107.596V51.0383H105.292V28.6383H107.596V38.6863H112.716L120.3 28.6383H122.86L114.54 39.5183L123.34 51.0383H120.62L112.716 40.7663ZM136.772 51.2303C134.553 51.2303 132.537 50.7397 130.724 49.7583C128.932 48.7557 127.524 47.3903 126.5 45.6623C125.497 43.9343 124.996 41.993 124.996 39.8383C124.996 37.6837 125.497 35.7423 126.5 34.0143C127.524 32.2863 128.932 30.9317 130.724 29.9503C132.537 28.9477 134.553 28.4463 136.772 28.4463C138.991 28.4463 140.985 28.937 142.756 29.9183C144.548 30.8997 145.956 32.265 146.98 34.0143C148.004 35.7423 148.516 37.6837 148.516 39.8383C148.516 41.993 148.004 43.945 146.98 45.6943C145.956 47.4223 144.548 48.777 142.756 49.7583C140.985 50.7397 138.991 51.2303 136.772 51.2303ZM136.772 49.1183C138.543 49.1183 140.143 48.7237 141.572 47.9343C143.001 47.1237 144.121 46.0143 144.932 44.6063C145.743 43.177 146.148 41.5877 146.148 39.8383C146.148 38.089 145.743 36.5103 144.932 35.1023C144.121 33.673 143.001 32.5637 141.572 31.7743C140.143 30.9637 138.543 30.5583 136.772 30.5583C135.001 30.5583 133.391 30.9637 131.94 31.7743C130.511 32.5637 129.38 33.673 128.548 35.1023C127.737 36.5103 127.332 38.089 127.332 39.8383C127.332 41.5877 127.737 43.177 128.548 44.6063C129.38 46.0143 130.511 47.1237 131.94 47.9343C133.391 48.7237 135.001 49.1183 136.772 49.1183ZM172.887 28.6383V51.0383H170.551V40.7023H156.535V51.0383H154.167V28.6383H156.535V38.6223H170.551V28.6383H172.887ZM180.448 28.6383H182.784V47.1983L197.12 28.6383H199.264V51.0383H196.928V32.5103L182.592 51.0383H180.448V28.6383ZM214.247 40.7663H209.127V51.0383H206.823V28.6383H209.127V38.6863H214.247L221.831 28.6383H224.391L216.071 39.5183L224.871 51.0383H222.151L214.247 40.7663ZM242.596 45.0543H230.116L227.428 51.0383H224.964L235.204 28.6383H237.54L247.78 51.0383H245.284L242.596 45.0543ZM241.732 43.1343L236.356 31.1023L230.98 43.1343H241.732Z" fill="#FFFBFF"/>
</g>
<g filter="url(#filter1_d)">
<path d="M139.07 25.1592L139.111 16.7166L146.16 17.8076L139.07 25.1592Z" fill="#FFFBFF"/>
</g>
<defs>
<filter id="filter0_d" x="51.479" y="21.4463" width="208.301" height="45.008" filterUnits="userSpaceOnUse" color-interpolation-filters="sRGB">
<feFlood flood-opacity="0" result="BackgroundImageFix"/>
<feColorMatrix in="SourceAlpha" type="matrix" values="0 0 0 0 0 0 0 0 0 0 0 0 0 0 0 0 0 0 127 0"/>
<feOffset dx="1" dy="4"/>
<feGaussianBlur stdDeviation="5.5"/>
<feColorMatrix type="matrix" values="0 0 0 0 1 0 0 0 0 1 0 0 0 0 1 0 0 0 0.25 0"/>
<feBlend mode="normal" in2="BackgroundImageFix" result="effect1_dropShadow"/>
<feBlend mode="normal" in="SourceGraphic" in2="effect1_dropShadow" result="shape"/>
</filter>
<filter id="filter1_d" x="139.07" y="16.7166" width="15.0899" height="16.4426" filterUnits="userSpaceOnUse" color-interpolation-filters="sRGB">
<feFlood flood-opacity="0" result="BackgroundImageFix"/>
<feColorMatrix in="SourceAlpha" type="matrix" values="0 0 0 0 0 0 0 0 0 0 0 0 0 0 0 0 0 0 127 0"/>
<feOffset dx="4" dy="4"/>
<feGaussianBlur stdDeviation="2"/>
<feColorMatrix type="matrix" values="0 0 0 0 1 0 0 0 0 1 0 0 0 0 1 0 0 0 0.25 0"/>
<feBlend mode="normal" in2="BackgroundImageFix" result="effect1_dropShadow"/>
<feBlend mode="normal" in="SourceGraphic" in2="effect1_dropShadow" result="shape"/>
</filter>
</defs>
</svg>
